<svg xmlns="http://www.w3.org/2000/svg" viewBox="0 0 1044 1044"><defs><style>.cls-1{fill:#ffe625;}.cls-2{fill:#404360;}.cls-3{fill:#f59220;}</style></defs><g id="Layer_2" data-name="Layer 2"><g id="Layer_1" data-name="Layer 1"><circle class="cls-1" cx="523" cy="527" r="500"/><circle class="cls-2" cx="523" cy="527" r="473.5"/></g></g><g id="Layer_1-2" data-name="Layer 1"><path class="cls-1" d="M528,207H518a10,10,0,0,1-10-10V97a10,10,0,0,1,10-10h10a10,10,0,0,1,10,10V197A10,10,0,0,1,528,207Z"/><circle class="cls-1" cx="523" cy="527" r="23"/><path class="cls-1" d="M518,847h10a10,10,0,0,1,10,10V957a10,10,0,0,1-10,10H518a10,10,0,0,1-10-10V857A10,10,0,0,1,518,847Z"/><path class="cls-1" d="M203,522v10a10,10,0,0,1-10,10H93a10,10,0,0,1-10-10V522a10,10,0,0,1,10-10H193A10,10,0,0,1,203,522Z"/><path class="cls-1" d="M833,532V522a10,10,0,0,1,10-10H943a10,10,0,0,1,10,10v10a10,10,0,0,1-10,10H843A10,10,0,0,1,833,532Z"/><path class="cls-1" d="M710.33,212.53l-8.66-5A10,10,0,0,1,698,193.87l20-34.64a10,10,0,0,1,13.66-3.66l8.66,5A10,10,0,0,1,744,174.23l-20,34.64A10,10,0,0,1,710.33,212.53Z"/><path class="cls-1" d="M203.53,705.67l5,8.66A10,10,0,0,1,204.87,728l-34.64,20a10,10,0,0,1-13.66-3.66l-5-8.66A10,10,0,0,1,155.23,722l34.64-20A10,10,0,0,1,203.53,705.67Z"/><path class="cls-1" d="M335.67,841.47l8.66,5A10,10,0,0,1,348,860.13l-20,34.64a10,10,0,0,1-13.66,3.66l-8.66-5A10,10,0,0,1,302,879.77l20-34.64A10,10,0,0,1,335.67,841.47Z"/><path class="cls-1" d="M208.53,339.67l-5,8.66A10,10,0,0,1,189.87,352l-34.64-20a10,10,0,0,1-3.66-13.66l5-8.66A10,10,0,0,1,170.23,306l34.64,20A10,10,0,0,1,208.53,339.67Z"/><path class="cls-1" d="M344.33,207.53l-8.66,5A10,10,0,0,1,322,208.87l-20-34.64a10,10,0,0,1,3.66-13.66l8.66-5A10,10,0,0,1,328,159.23l20,34.64A10,10,0,0,1,344.33,207.53Z"/><path class="cls-1" d="M837.47,349.33l-5-8.66A10,10,0,0,1,836.13,327l34.64-20a10,10,0,0,1,13.66,3.66l5,8.66A10,10,0,0,1,885.77,333l-34.64,20A10,10,0,0,1,837.47,349.33Z"/><path class="cls-1" d="M837.47,714.33l5-8.66A10,10,0,0,1,856.13,702l34.64,20a10,10,0,0,1,3.66,13.66l-5,8.66A10,10,0,0,1,875.77,748l-34.64-20A10,10,0,0,1,837.47,714.33Z"/><path class="cls-1" d="M701.67,846.47l8.66-5A10,10,0,0,1,724,845.13l20,34.64a10,10,0,0,1-3.66,13.66l-8.66,5A10,10,0,0,1,718,894.77l-20-34.64A10,10,0,0,1,701.67,846.47Z"/><path class="cls-3" d="M438.82,730.68l74.47-194.2a4.5,4.5,0,0,1,5.82-2.59h0a4.49,4.49,0,0,1,2.59,5.81L447.22,733.91a4.49,4.49,0,0,1-5.81,2.59h0A4.5,4.5,0,0,1,438.82,730.68Z"/><path class="cls-3" d="M225.67,336.24l280.58,166a8.5,8.5,0,0,1,3,11.64h0a8.51,8.51,0,0,1-11.65,3L217,350.86a8.49,8.49,0,0,1-3-11.64h0A8.48,8.48,0,0,1,225.67,336.24Z"/></g></svg>